Normalized EMG Linear Envelopes
nRows=38
nColumns=17

endheader
time	        VM	        VL	        RF	       GRA	        TA	   ADDLONG	   SEMIMEM	      BFLH	        GM	        GL	       TFL	   GLUTMAX	   GLUTMED	      PIRI	    OBTINT	        QF	
1.6435	  0.056507	  0.006539	  0.009850	  0.195223	  0.087457	  0.033528	  0.501810	  0.444200	  0.277481	  0.046549	  0.021170	  0.367286	  0.185668	  0.338703	  0.454955	  0.286654	
1.644	  0.056871	  0.006215	  0.009708	  0.196288	  0.088383	  0.033741	  0.505602	  0.449546	  0.280888	  0.047076	  0.021127	  0.367579	  0.185188	  0.338694	  0.456789	  0.287041	
1.6445	  0.057241	  0.005895	  0.009567	  0.197358	  0.089330	  0.033957	  0.509375	  0.454893	  0.284286	  0.047603	  0.021084	  0.367850	  0.184739	  0.338670	  0.458715	  0.287418	
1.645	  0.057618	  0.005580	  0.009428	  0.198436	  0.090297	  0.034175	  0.513129	  0.460241	  0.287675	  0.048131	  0.021040	  0.368098	  0.184321	  0.338630	  0.460731	  0.287784	
1.6455	  0.058003	  0.005270	  0.009291	  0.199522	  0.091284	  0.034395	  0.516863	  0.465589	  0.291053	  0.048658	  0.020996	  0.368324	  0.183933	  0.338574	  0.462836	  0.288140	
1.646	  0.058396	  0.004964	  0.009156	  0.200616	  0.092290	  0.034618	  0.520575	  0.470937	  0.294418	  0.049186	  0.020951	  0.368530	  0.183574	  0.338501	  0.465028	  0.288487	
1.6465	  0.058796	  0.004665	  0.009022	  0.201721	  0.093316	  0.034844	  0.524264	  0.476284	  0.297771	  0.049713	  0.020906	  0.368714	  0.183244	  0.338412	  0.467305	  0.288825	
1.647	  0.059205	  0.004371	  0.008890	  0.202836	  0.094361	  0.035073	  0.527932	  0.481631	  0.301108	  0.050239	  0.020860	  0.368878	  0.182942	  0.338306	  0.469665	  0.289156	
1.6475	  0.059623	  0.004083	  0.008760	  0.203962	  0.095424	  0.035304	  0.531577	  0.486975	  0.304430	  0.050764	  0.020813	  0.369021	  0.182666	  0.338184	  0.472107	  0.289478	
1.648	  0.060049	  0.003802	  0.008632	  0.205100	  0.096506	  0.035538	  0.535199	  0.492318	  0.307735	  0.051289	  0.020766	  0.369143	  0.182417	  0.338045	  0.474628	  0.289794	
1.6485	  0.060485	  0.003527	  0.008505	  0.206250	  0.097606	  0.035774	  0.538798	  0.497657	  0.311021	  0.051812	  0.020719	  0.369245	  0.182192	  0.337890	  0.477227	  0.290102	
1.649	  0.060931	  0.003260	  0.008380	  0.207414	  0.098723	  0.036013	  0.542375	  0.502993	  0.314288	  0.052334	  0.020672	  0.369327	  0.181992	  0.337718	  0.479900	  0.290404	
1.6495	  0.061386	  0.003000	  0.008257	  0.208592	  0.099858	  0.036255	  0.545928	  0.508324	  0.317534	  0.052853	  0.020624	  0.369388	  0.181814	  0.337530	  0.482647	  0.290700	
1.65	  0.061852	  0.002748	  0.008135	  0.209784	  0.101009	  0.036499	  0.549458	  0.513650	  0.320758	  0.053371	  0.020575	  0.369429	  0.181659	  0.337327	  0.485464	  0.290989	
1.6505	  0.062328	  0.002505	  0.008015	  0.210991	  0.102177	  0.036746	  0.552965	  0.518968	  0.323959	  0.053886	  0.020527	  0.369449	  0.181526	  0.337107	  0.488349	  0.291273	
1.651	  0.062815	  0.002270	  0.007896	  0.212214	  0.103360	  0.036996	  0.556447	  0.524278	  0.327137	  0.054398	  0.020478	  0.369447	  0.181413	  0.336872	  0.491301	  0.291551	
1.6515	  0.063312	  0.002045	  0.007779	  0.213453	  0.104558	  0.037248	  0.559906	  0.529580	  0.330289	  0.054907	  0.020429	  0.369425	  0.181320	  0.336622	  0.494316	  0.291824	
1.652	  0.063822	  0.001829	  0.007664	  0.214708	  0.105771	  0.037503	  0.563340	  0.534871	  0.333415	  0.055413	  0.020380	  0.369380	  0.181246	  0.336356	  0.497391	  0.292092	
1.6525	  0.064342	  0.001623	  0.007550	  0.215981	  0.106998	  0.037760	  0.566751	  0.540151	  0.336514	  0.055916	  0.020330	  0.369314	  0.181190	  0.336076	  0.500524	  0.292357	
1.653	  0.064875	  0.001428	  0.007438	  0.217270	  0.108239	  0.038020	  0.570139	  0.545418	  0.339586	  0.056415	  0.020280	  0.369226	  0.181151	  0.335781	  0.503713	  0.292618	
1.6535	  0.065419	  0.001243	  0.007328	  0.218578	  0.109493	  0.038282	  0.573503	  0.550671	  0.342628	  0.056909	  0.020231	  0.369115	  0.181129	  0.335471	  0.506954	  0.292877	
1.654	  0.065975	  0.001069	  0.007219	  0.219903	  0.110759	  0.038546	  0.576845	  0.555909	  0.345641	  0.057399	  0.020181	  0.368981	  0.181123	  0.335148	  0.510244	  0.293134	
1.6545	  0.066544	  0.000907	  0.007112	  0.221247	  0.112038	  0.038813	  0.580165	  0.561130	  0.348623	  0.057885	  0.020131	  0.368823	  0.181131	  0.334811	  0.513582	  0.293389	
1.655	  0.067126	  0.000758	  0.007006	  0.222609	  0.113328	  0.039082	  0.583464	  0.566333	  0.351575	  0.058366	  0.020081	  0.368642	  0.181154	  0.334461	  0.516963	  0.293644	
1.6555	  0.067720	  0.000620	  0.006902	  0.223991	  0.114630	  0.039354	  0.586742	  0.571516	  0.354495	  0.058841	  0.020031	  0.368437	  0.181189	  0.334099	  0.520385	  0.293899	
1.656	  0.068327	  0.000495	  0.006800	  0.225391	  0.115943	  0.039628	  0.589998	  0.576678	  0.357384	  0.059311	  0.019981	  0.368207	  0.181236	  0.333724	  0.523846	  0.294153	
1.6565	  0.068947	  0.000384	  0.006700	  0.226812	  0.117266	  0.039904	  0.593235	  0.581817	  0.360241	  0.059776	  0.019931	  0.367952	  0.181294	  0.333338	  0.527342	  0.294409	
1.657	  0.069580	  0.000286	  0.006601	  0.228252	  0.118599	  0.040184	  0.596450	  0.586930	  0.363065	  0.060235	  0.019880	  0.367671	  0.181362	  0.332940	  0.530870	  0.294667	
1.6575	  0.070226	  0.000202	  0.006504	  0.229712	  0.119941	  0.040465	  0.599645	  0.592017	  0.365855	  0.060688	  0.019831	  0.367363	  0.181438	  0.332532	  0.534428	  0.294927	
1.658	  0.070886	  0.000133	  0.006409	  0.231192	  0.121294	  0.040750	  0.602820	  0.597075	  0.368612	  0.061135	  0.019781	  0.367029	  0.181522	  0.332113	  0.538011	  0.295190	
1.6585	  0.071560	  0.000079	  0.006316	  0.232693	  0.122655	  0.041037	  0.605973	  0.602101	  0.371335	  0.061575	  0.019731	  0.366667	  0.181612	  0.331685	  0.541617	  0.295457	
1.659	  0.072248	  0.000040	  0.006224	  0.234215	  0.124025	  0.041327	  0.609105	  0.607093	  0.374022	  0.062009	  0.019682	  0.366278	  0.181708	  0.331248	  0.545241	  0.295729	
1.6595	  0.072950	  0.000017	  0.006135	  0.235757	  0.125404	  0.041621	  0.612215	  0.612049	  0.376673	  0.062435	  0.019632	  0.365863	  0.181808	  0.330802	  0.548881	  0.296006	
1.66	  0.073666	  0.000011	  0.006047	  0.237320	  0.126791	  0.041917	  0.615302	  0.616967	  0.379287	  0.062855	  0.019584	  0.365421	  0.181912	  0.330348	  0.552532	  0.296289	
1.6605	  0.074397	  0.000021	  0.005962	  0.238904	  0.128185	  0.042216	  0.618365	  0.621844	  0.381863	  0.063267	  0.019535	  0.364953	  0.182020	  0.329888	  0.556192	  0.296579	
1.661	  0.075142	  0.000048	  0.005878	  0.240510	  0.129587	  0.042519	  0.621403	  0.626678	  0.384402	  0.063671	  0.019487	  0.364460	  0.182130	  0.329422	  0.559855	  0.296876	
1.6615	  0.075901	  0.000093	  0.005797	  0.242136	  0.130995	  0.042824	  0.624415	  0.631467	  0.386901	  0.064068	  0.019440	  0.363943	  0.182242	  0.328952	  0.563518	  0.297183	
1.662	  0.076675	  0.000157	  0.005718	  0.243783	  0.132410	  0.043134	  0.627400	  0.636210	  0.389360	  0.064458	  0.019393	  0.363403	  0.182356	  0.328477	  0.567177	  0.297499	
